<?xml version="1.0" encoding="UTF-8"?>
<svg width="347px" height="53px" viewBox="0 0 347 53" version="1.1" xmlns="http://www.w3.org/2000/svg" xmlns:xlink="http://www.w3.org/1999/xlink">
    <!-- Generator: Sketch 42 (36781) - http://www.bohemiancoding.com/sketch -->
    <title>Artboard</title>
    <desc>Created with Sketch.</desc>
    <defs></defs>
    <g id="Page-1" stroke="none" stroke-width="1" fill="none" fill-rule="evenodd">
        <g id="Artboard" fill="#6C2CC7">
            <path d="M35.128,0.808 C28.792,0.808 23.752,6.064 23.752,12.328 L23.752,27.88 C23.752,28.024 23.176,28.24 23.176,27.88 C22.456,22.624 18.496,18.664 12.232,18.88 C5.896,19.24 1,24.28 0.856,30.616 C0.28,45.592 11.296,51.928 23.752,52.504 C36.208,51.928 46.648,44.512 46.648,30.472 C46.864,24.496 46.72,18.304 46.72,12.328 C46.72,6.064 41.608,0.808 35.128,0.808 Z M73.432,52.504 C86.824,52.504 97.984,41.344 97.984,27.952 L97.984,12.472 C97.984,6.136 92.728,0.88 86.608,0.88 C80.2,0.88 75.016,6.136 75.016,12.472 L75.016,26.584 C75.016,27.448 74.296,28.384 73.432,28.384 C72.496,28.384 71.848,27.448 71.848,26.584 L71.848,12.472 C71.848,6.136 66.808,0.88 60.472,0.88 C54.064,0.88 48.88,6.136 48.88,12.472 L48.88,27.952 C48.88,41.344 59.968,52.504 73.432,52.504 Z M119.296,16.144 C118.936,16.504 118.432,16 118.576,15.64 L122.752,9.664 C121.456,4.48 116.992,0.736 111.304,0.736 C105.04,0.736 100,5.776 100,12.184 L100,40.696 C100,46.96 105.04,52 111.304,52 C115.048,52 117.856,50.56 120.376,47.824 L125.632,42.352 L132.04,48.76 C136.576,53.224 143.776,53.224 148.168,48.76 C152.704,44.296 152.704,37.096 148.168,32.56 L141.76,26.152 L147.448,20.32 C151.984,15.784 151.984,8.584 147.448,4.12 C143.056,-0.344 135.856,-0.344 131.32,4.12 L119.296,16.144 Z M152.92,12.4 L152.92,40.624 C152.92,46.816 157.96,52 164.368,52 L183.304,52 C191.296,52 194.68,45.088 194.68,40.624 C194.68,37.6 194.32,36.304 193.6,35.08 C190.936,38.248 187.192,38.968 183.448,38.608 C182.944,38.608 182.944,37.744 183.448,37.744 C186.472,37.384 189.352,36.52 191.512,34.144 C194.68,30.976 195.4,25.432 193.456,21.184 C190.576,24.208 186.688,25.072 182.728,24.568 C182.224,24.352 182.224,23.632 182.728,23.632 C187.048,23.488 190.432,22.192 192.736,18.448 C197.416,11.176 192.376,0.808 183.304,0.808 L164.512,0.808 C157.744,0.808 152.92,5.992 152.92,12.4 Z M228.952,29.464 C235.36,27.952 240.328,22.192 240.328,15.352 C240.328,7.144 233.632,0.808 225.856,0.808 L207.784,0.808 C201.52,0.808 196.48,5.776 196.48,12.184 L196.48,40.336 C196.48,46.528 201.664,51.928 207.784,51.928 L226.792,51.928 C234.424,51.928 242.776,43.72 242.776,36.16 C242.776,29.608 241.408,28.312 239.032,25.72 C236.44,28.528 232.912,30.184 228.952,30.328 C228.448,30.328 228.448,29.608 228.952,29.464 Z M269.704,0.16 C284.176,0.16 295.984,11.968 295.984,26.368 C295.984,40.84 284.176,52.432 269.704,52.432 C255.448,52.432 243.568,40.84 243.568,26.368 C243.568,11.968 255.448,0.16 269.704,0.16 Z M269.704,23.632 C268.408,23.632 267.112,24.712 267.112,26.368 C267.112,27.88 268.408,29.176 269.704,29.176 C271.216,29.176 272.512,27.88 272.512,26.368 C272.512,24.712 271.216,23.632 269.704,23.632 Z M321.472,9.808 L315.712,4.048 C311.608,-0.488 304.48,-0.488 300.16,4.048 C295.768,8.44 295.768,15.712 300.16,20.248 L305.632,26.008 L299.512,32.488 C295.192,37.096 295.192,44.368 299.512,48.688 C303.904,53.296 310.816,53.296 315.136,48.688 L321.472,42.208 L327.808,48.688 C332.128,53.296 339.04,53.296 343.432,48.688 C347.752,44.368 347.752,37.096 343.432,32.488 L337.312,26.008 L342.784,20.248 C347.176,15.712 347.176,8.44 342.784,4.048 C338.464,-0.488 331.552,-0.488 327.232,4.048 L321.472,9.808 Z" id="JUKEBOX"></path>
        </g>
    </g>
</svg>
